<svg xmlns="http://www.w3.org/2000/svg" xmlns:xlink="http://www.w3.org/1999/xlink" xmlns:lucid="lucid" width="1600.45" height="1760.28"><g transform="translate(0 0)" lucid:page-tab-id=".Q4MUjXso07N"><path d="M240 165a5 5 0 0 1 5-5h1110a5 5 0 0 1 5 5v1350a5 5 0 0 1-5 5H245a5 5 0 0 1-5-5z" stroke="#333" fill-opacity="0"/><use xlink:href="#a" transform="matrix(1,0,0,1,248,168.0000000000001) translate(510.9138997395833 19.014973958333332)"/><path d="M140.25 339.95v-.2A19.75 19.75 0 0 1 160 320a19.75 19.75 0 0 1 19.75 19.75A19.75 19.75 0 0 1 160 359.5a19.75 19.75 0 0 1-19.75-19.75v-.2" stroke="#333" fill="#fff"/><path d="M120 325a5 5 0 0 1 5-5h70a5 5 0 0 1 5 5v148a5 5 0 0 1-5 5h-70a5 5 0 0 1-5-5z" fill="none"/><path d="M160 359.5v55.3l40 63.2m-40-63.2L120 478m0-98.75h80" stroke="#333" fill="none"/><use xlink:href="#b" transform="matrix(1,0,0,1,40,478) translate(68.13554687499999 18.011979166666666)"/><path d="M1421.28 201.34v-.22a21.28 21.28 0 0 1 21.27-21.27 21.28 21.28 0 0 1 21.28 21.28 21.28 21.28 0 0 1-21.28 21.27 21.28 21.28 0 0 1-21.27-21.28v-.2" stroke="#333" fill="#fff"/><path d="M1400 184.85a5 5 0 0 1 5-5h75.1a5 5 0 0 1 5 5v166.53a5 5 0 0 1-5 5H1405a5 5 0 0 1-5-5z" fill="none"/><path d="M1442.55 222.4v63.37l42.56 70.6m-42.55-70.6l-42.55 70.6m0-112.7h85.1" stroke="#333" fill="none"/><use xlink:href="#c" transform="matrix(1,0,0,1,1320,356.37788702737646) translate(103.8671875 18.011979166666666)"/><path d="M158.86 1319.95v-.2A19.75 19.75 0 0 1 178.6 1300a19.75 19.75 0 0 1 19.76 19.75 19.75 19.75 0 0 1-19.75 19.75 19.75 19.75 0 0 1-19.74-19.75v-.2" stroke="#333" fill="#fff"/><path d="M138.6 1305a5 5 0 0 1 5-5h70a5 5 0 0 1 5 5v148a5 5 0 0 1-5 5h-70a5 5 0 0 1-5-5z" fill="none"/><path d="M178.6 1339.5v55.3l40 63.2m-40-63.2l-40 63.2m0-98.75h80" stroke="#333" fill="none"/><use xlink:href="#d" transform="matrix(1,0,0,1,58.61142978143357,1458) translate(85.94036458333333 18.011979166666666)"/><path d="M498.6 1420c0 33.14-35.8 60-80 60-44.17 0-80-26.86-80-60s35.83-60 80-60c44.2 0 80 26.86 80 60z" stroke="#fff" fill="#3278cc"/><use xlink:href="#e" transform="matrix(1,0,0,1,362.61142978143357,1384) translate(24.535807291666664 32.01197916666666)"/><use xlink:href="#f" transform="matrix(1,0,0,1,362.61142978143357,1384) translate(69.22747395833333 32.01197916666666)"/><use xlink:href="#g" transform="matrix(1,0,0,1,362.61142978143357,1384) translate(17.819140624999996 52.016666666666666)"/><path d="M338.72 1409.98l-159.12-30.9" stroke="#333" fill="none"/><path d="M339.3 1409.6l-.2.94-.48-.1.18-.93z" stroke="#333" stroke-width=".05" fill="#333"/><path d="M179.62 1379.07l-3.45-.67" stroke="#333" fill="none"/><path d="M498.6 1280c0 33.14-35.8 60-80 60-44.17 0-80-26.86-80-60s35.83-60 80-60c44.2 0 80 26.86 80 60z" stroke="#fff" fill="#3278cc"/><use xlink:href="#h" transform="matrix(1,0,0,1,362.61142978143357,1244) translate(1.023437499999993 42.01432291666667)"/><use xlink:href="#i" transform="matrix(1,0,0,1,362.61142978143357,1244) translate(67.80260416666667 42.01432291666667)"/><path d="M349.42 1311.68l-169.84 66.8" stroke="#333" fill="none"/><path d="M350.2 1311.9l-.62.23-.34-.9.34-.12z" stroke="#333" stroke-width=".05" fill="#333"/><path d="M179.6 1378.5l-3.28 1.28M499.6 1280h5.46m5.45 0h10.9m5.47 0h10.9m5.45 0h5.45" stroke="#333" fill="none"/><path d="M499.62 1280.47h-.52V1279.54h.52z" stroke="#333" stroke-width=".05" fill="#333"/><path d="M539.8 1270l17.3 10-17.3 10m17.3-10h-8.5" stroke="#333" fill="none"/><path d="M718.6 1280c0 33.14-35.8 60-80 60-44.17 0-80-26.86-80-60s35.83-60 80-60c44.2 0 80 26.86 80 60z" stroke="#fff" fill="#3278cc"/><use xlink:href="#j" transform="matrix(1,0,0,1,582.6114297814336,1244) translate(24.935416666666665 32.01197916666666)"/><use xlink:href="#k" transform="matrix(1,0,0,1,582.6114297814336,1244) translate(21.996875000000003 52.016666666666666)"/><path d="M700 1060c0 33.14-35.82 60-80 60s-80-26.86-80-60 35.82-60 80-60 80 26.86 80 60z" stroke="#fff" fill="#3278cc"/><use xlink:href="#l" transform="matrix(1,0,0,1,564,1024) translate(19.211718750000003 32.01197916666666)"/><use xlink:href="#m" transform="matrix(1,0,0,1,564,1024) translate(18.02903645833333 52.016666666666666)"/><path d="M464.56 1229.8l3.44-3.76m3.45-3.77l6.9-7.53m3.45-3.77l6.9-7.53m3.45-3.77l6.9-7.54m3.44-3.76l6.9-7.54m3.44-3.76l6.9-7.54m3.44-3.77l6.9-7.53m3.45-3.77l6.9-7.53m3.45-3.77l6.9-7.54m3.44-3.76l6.9-7.54m3.45-3.76l3.45-3.77" stroke="#333" fill="none"/><path d="M464.92 1230.12l-.26.28-.88-.45.43-.47z" stroke="#333" stroke-width=".05" fill="#333"/><path d="M554.65 1116.58l19.07-6.02-4.32 19.53m4.32-19.54l-5.74 6.27" stroke="#333" fill="none"/><path d="M960 1320c0 33.14-35.82 60-80 60s-80-26.86-80-60 35.82-60 80-60 80 26.86 80 60z" stroke="#fff" fill="#3278cc"/><use xlink:href="#n" transform="matrix(1,0,0,1,824,1284) translate(24.309765624999997 32.01197916666666)"/><use xlink:href="#o" transform="matrix(1,0,0,1,824,1284) translate(24.971744791666666 52.016666666666666)"/><path d="M719.56 1280.22l4.77 2.37m4.76 2.37l9.52 4.74m4.77 2.38l9.52 4.74m4.76 2.37l9.54 4.74m4.76 2.37l9.53 4.75m4.78 2.37l4.76 2.37" stroke="#333" fill="none"/><path d="M719.78 1279.8l-.42.85-.26-.13v-1.05z" stroke="#333" stroke-width=".05" fill="#333"/><path d="M787.55 1302.9l11.06 16.65-19.96 1.24m19.97-1.24l-7.6-3.8" stroke="#333" fill="none"/><path d="M820 1160c0 33.14-35.82 60-80 60s-80-26.86-80-60 35.82-60 80-60 80 26.86 80 60z" stroke="#fff" fill="#3278cc"/><use xlink:href="#p" transform="matrix(1,0,0,1,684,1124) translate(22.707291666666663 32.01197916666666)"/><use xlink:href="#q" transform="matrix(1,0,0,1,684,1124) translate(34.5421875 52.016666666666666)"/><path d="M491.17 1252.9l4.67-1.74m4.66-1.74l9.33-3.48m4.66-1.74l9.32-3.48m4.66-1.74l9.33-3.5m4.67-1.73l9.33-3.48m4.66-1.74l9.33-3.48m4.65-1.74l9.33-3.48m4.66-1.74l9.33-3.48m4.66-1.74l9.33-3.48m4.66-1.75l9.33-3.48m4.66-1.74l9.34-3.47m4.66-1.74l9.33-3.5m4.66-1.74l4.66-1.74" stroke="#333" fill="none"/><path d="M491.35 1253.35l-.37.13-.55-.8.6-.22z" stroke="#333" stroke-width=".05" fill="#333"/><path d="M647.25 1183.96l19.72 3.3-12.73 15.43m12.73-15.43l-7.96 2.97" stroke="#333" fill="none"/><path d="M420 1040c0 33.14-35.82 60-80 60s-80-26.86-80-60 35.82-60 80-60 80 26.86 80 60z" stroke="#fff" fill="#3278cc"/><use xlink:href="#p" transform="matrix(1,0,0,1,284,1004) translate(22.707291666666663 32.01197916666666)"/><use xlink:href="#r" transform="matrix(1,0,0,1,284,1004) translate(20.56393229166666 52.016666666666666)"/><path d="M393.75 1221.97l-1.33-4.76m-1.33-4.74l-2.68-9.52m-1.33-4.75l-2.67-9.52m-1.33-4.76l-2.67-9.5m-1.33-4.77l-2.66-9.5m-1.34-4.77l-2.66-9.5m-1.33-4.77l-2.66-9.5m-1.33-4.75l-2.65-9.52m-1.33-4.75l-1.34-4.76" stroke="#333" fill="none"/><path d="M394.35 1222.34l-.93.22-.13-.48.9-.25z" stroke="#333" stroke-width=".05" fill="#333"/><path d="M354.55 1119.07l4.96-19.38 14.3 13.97m-14.3-13.98l2.3 8.18M427.8 1219.44l.5-5m.47-5l.98-9.97m.48-5l.97-9.97m.5-5l.96-9.97m.5-5l.96-9.97m.5-5l.96-9.97m.48-5l.98-9.98m.48-5l.97-9.97m.48-5l.97-9.98m.5-5l.96-9.97m.5-5l.97-9.97m.48-5l.97-9.97m.5-5l.96-9.97m.5-5l.47-5" stroke="#333" fill="none"/><path d="M428.28 1219.47l-.05.5-.95-.08.05-.52z" stroke="#333" stroke-width=".05" fill="#333"/><path d="M435.94 1032.67l11.63-16.27 8.28 18.2m-8.28-18.2l-.82 8.46" stroke="#333" fill="none"/><path d="M560 960c0 33.14-35.82 60-80 60s-80-26.86-80-60 35.82-60 80-60 80 26.86 80 60z" stroke="#fff" fill="#3278cc"/><use xlink:href="#s" transform="matrix(1,0,0,1,424,924) translate(31.866015625 32.01197916666666)"/><use xlink:href="#t" transform="matrix(1,0,0,1,424,924) translate(17.702083333333327 52.016666666666666)"/><path d="M460 240c0 33.14-35.82 60-80 60s-80-26.86-80-60 35.82-60 80-60 80 26.86 80 60z" stroke="#fff" fill="#3278cc"/><use xlink:href="#u" transform="matrix(1,0,0,1,324,204) translate(24.273437499999996 32.01197916666666)"/><use xlink:href="#v" transform="matrix(1,0,0,1,324,204) translate(19.417578125 52.016666666666666)"/><path d="M323.46 283.63L159.93 385.17" stroke="#333" fill="none"/><path d="M324.25 283.65l.04.02-.6.37-.5-.8.28-.18z" stroke="#333" stroke-width=".05" fill="#333"/><path d="M159.94 385.16l-3 1.85M460.9 242.96l980.65 8.27" stroke="#333" fill="none"/><path d="M460.92 242.5v.94h-.56l.05-.55.02-.4z" stroke="#333" stroke-width=".05" fill="#333"/><path d="M1441.54 251.23l3.5.03" stroke="#333" fill="none"/><path d="M580 560c0 33.14-35.82 60-80 60s-80-26.86-80-60 35.82-60 80-60 80 26.86 80 60z" stroke="#fff" fill="#3278cc"/><use xlink:href="#w" transform="matrix(1,0,0,1,444,524) translate(17.855468749999993 32.01197916666666)"/><use xlink:href="#x" transform="matrix(1,0,0,1,444,524) translate(18.02903645833333 52.016666666666666)"/><path d="M160.93 409l258.14 150.75M160.94 409l-3.03-1.78" stroke="#333" fill="none"/><path d="M419.52 559.46l-.02.53v.55l-.68-.4.48-.82z" stroke="#333" stroke-width=".05" fill="#333"/><path d="M500.12 620.98l1.22 4.77m1.22 4.77l2.43 9.53m1.2 4.77l2.44 9.53m1.22 4.77l2.44 9.53m1.22 4.77l2.43 9.54m1.22 4.76l2.43 9.54m1.22 4.76l2.43 9.54m1.22 4.76l2.44 9.54m1.22 4.76l2.44 9.54m1.22 4.76l2.43 9.54m1.23 4.77l2.43 9.53m1.22 4.77l2.43 9.53m1.23 4.77l2.44 9.53m1.2 4.77l2.45 9.53m1.2 4.77l2.45 9.53m1.22 4.77l2.42 9.53m1.22 4.77l2.43 9.54m1.22 4.76l2.43 9.54m1.2 4.76l2.45 9.54m1.22 4.76l2.43 9.54m1.22 4.76l2.43 9.54m1.22 4.76l2.43 9.54m1.22 4.77l2.44 9.53m1.2 4.77l2.44 9.53m1.22 4.77l2.43 9.53m1.2 4.77l2.44 9.53m1.22 4.77l1.22 4.77" stroke="#333" fill="none"/><path d="M500 620.5h.5l.1.38-.93.23-.16-.62z" stroke="#333" stroke-width=".05" fill="#333"/><path d="M602.57 981.73l-5.4 19.26-13.98-14.32m13.97 14.3l-2.1-8.23" stroke="#333" fill="none"/><path d="M500 680c0 33.14-35.82 60-80 60s-80-26.86-80-60 35.82-60 80-60 80 26.86 80 60z" stroke="#fff" fill="#3278cc"/><use xlink:href="#y" transform="matrix(1,0,0,1,364,644) translate(33.42408854166666 32.01197916666666)"/><use xlink:href="#z" transform="matrix(1,0,0,1,364,644) translate(13.338671874999996 52.016666666666666)"/><path d="M366.44 634.27L160.84 409.1" stroke="#333" fill="none"/><path d="M367.17 634.36l-.8.55-.3-.32.7-.64z" stroke="#333" stroke-width=".05" fill="#333"/><path d="M160.85 409.1l-2.37-2.58M420.18 740.97l1.7 4.53m1.72 4.54l3.42 9.07m1.72 4.55l3.42 9.07m1.7 4.54l3.44 9.07m1.7 4.54l3.43 9.07m1.7 4.54l3.44 9.07m1.7 4.53l3.43 9.08m1.7 4.53l3.44 9.07m1.7 4.53l3.43 9.08m1.7 4.53l3.44 9.08m1.72 4.54l3.42 9.07m1.7 4.53l1.73 4.53" stroke="#333" fill="none"/><path d="M420 740.5h.5l.13.3-.9.35-.24-.67z" stroke="#333" stroke-width=".05" fill="#333"/><path d="M482.9 878.83l-3.25 19.73-15.47-12.67m15.47 12.66l-3-7.95" stroke="#333" fill="none"/><path d="M420 820c0 33.14-35.82 60-80 60s-80-26.86-80-60 35.82-60 80-60 80 26.86 80 60z" stroke="#fff" fill="#3278cc"/><use xlink:href="#A" transform="matrix(1,0,0,1,284,784) translate(17.855468749999993 32.01197916666666)"/><use xlink:href="#B" transform="matrix(1,0,0,1,284,784) translate(16.20052083333333 52.016666666666666)"/><path d="M1280 320c0 33.14-35.82 60-80 60s-80-26.86-80-60 35.82-60 80-60 80 26.86 80 60z" stroke="#fff" fill="#3278cc"/><use xlink:href="#C" transform="matrix(1,0,0,1,1144,284) translate(20.31770833333333 32.01197916666666)"/><use xlink:href="#D" transform="matrix(1,0,0,1,1144,284) translate(71.91979166666667 32.01197916666666)"/><use xlink:href="#E" transform="matrix(1,0,0,1,1144,284) translate(20.608333333333334 52.016666666666666)"/><path d="M1280.96 319.8L1441.6 252" stroke="#333" fill="none"/><path d="M1281.16 320.24l-.68.28.02-.5v-.53l.3-.14z" stroke="#333" stroke-width=".05" fill="#333"/><path d="M1441.58 252l3.24-1.36M314.6 762.1L182.37 451.25" stroke="#333" fill="none"/><path d="M315.25 762.46l-.94.2-.15-.38.87-.37z" stroke="#333" stroke-width=".05" fill="#333"/><path d="M182.4 451.26l-1.4-3.23M340 881v4.95m0 4.94v9.9m0 4.94v9.9m0 4.94v9.9m0 4.94v9.9m0 4.95v9.9m0 4.94v4.96" stroke="#333" fill="none"/><path d="M340 880.5h.48v.5h-.96v-.5z" stroke="#333" stroke-width=".05" fill="#333"/><path d="M350 961.18l-10 17.32-10-17.32m10 17.32V970" stroke="#333" fill="none"/><path d="M720 460c0 33.14-35.82 60-80 60s-80-26.86-80-60 35.82-60 80-60 80 26.86 80 60z" stroke="#fff" fill="#3278cc"/><use xlink:href="#w" transform="matrix(1,0,0,1,584,424) translate(17.855468749999993 32.01197916666666)"/><use xlink:href="#F" transform="matrix(1,0,0,1,584,424) translate(34.5421875 52.016666666666666)"/><path d="M559 459.93l-399-54.9" stroke="#333" fill="none"/><path d="M559.5 459.52v.95l-.57-.08.13-.94z" stroke="#333" stroke-width=".05" fill="#333"/><path d="M160 405.05l-3.47-.48M640.1 521l.82 4.86m.85 4.86l1.68 9.73m.84 4.87l1.67 9.73m.84 4.86l1.7 9.74m.83 4.87l1.68 9.74m.85 4.86l1.68 9.73m.84 4.87l1.68 9.73m.84 4.86l1.67 9.72m.84 4.87l1.7 9.72m.83 4.86l1.68 9.73m.85 4.88l1.68 9.73m.84 4.87l1.68 9.73m.84 4.87l1.67 9.73m.84 4.86l1.7 9.73m.83 4.86l1.7 9.73m.83 4.85l1.68 9.73m.84 4.87l1.68 9.73m.84 4.86l1.68 9.73m.84 4.87l1.68 9.73m.84 4.86l1.68 9.73m.84 4.87l1.68 9.73m.84 4.86l1.68 9.73m.84 4.87l1.68 9.73m.84 4.86l1.68 9.74m.84 4.87l1.68 9.74m.84 4.86l1.68 9.73m.84 4.87l1.68 9.73m.84 4.86l1.7 9.72m.83 4.87l1.67 9.72m.85 4.86l1.68 9.73m.84 4.88l1.68 9.73m.84 4.87l1.67 9.73m.84 4.87l1.7 9.73m.83 4.86l1.68 9.73m.85 4.86l1.68 9.73m.84 4.85l1.68 9.73m.84 4.87l1.67 9.73m.84 4.86l1.7 9.73m.83 4.86l1.68 9.73m.85 4.87l.84 4.86" stroke="#333" fill="none"/><path d="M640 520.5h.48l.07.42-.93.17-.1-.62z" stroke="#333" stroke-width=".05" fill="#333"/><path d="M746.74 1079.74l-6.9 18.78-12.8-15.37m12.8 15.37l-1.46-8.38" stroke="#333" fill="none"/><path d="M800 320c0 33.14-35.82 60-80 60s-80-26.86-80-60 35.82-60 80-60 80 26.86 80 60z" stroke="#fff" fill="#3278cc"/><use xlink:href="#A" transform="matrix(1,0,0,1,664,284) translate(17.855468749999993 32.01197916666666)"/><use xlink:href="#o" transform="matrix(1,0,0,1,664,284) translate(24.971744791666666 52.016666666666666)"/><path d="M639 320.08l-478 77.47" stroke="#333" fill="none"/><path d="M639.5 320V320.47l-.43.07-.15-.94.6-.08z" stroke="#333" stroke-width=".05" fill="#333"/><path d="M161 397.55l-3.46.56M1119 320h-4.9m-4.9 0h-9.82m-4.9 0h-9.82m-4.9 0h-9.82m-4.9 0h-9.8m-4.92 0h-9.8m-4.92 0h-9.8m-4.9 0h-9.82m-4.9 0h-9.82m-4.9 0h-9.82m-4.9 0h-9.82m-4.9 0h-9.8m-4.92 0h-9.8m-4.9 0h-9.83m-4.9 0h-9.8m-4.92 0h-9.8m-4.92 0h-9.8m-4.9 0h-9.82m-4.9 0h-9.8m-4.92 0h-9.8m-4.9 0h-9.83m-4.9 0h-4.9" stroke="#333" fill="none"/><path d="M1119.5 320V320.47h-.5v-.96h.52z" stroke="#333" stroke-width=".05" fill="#333"/><path d="M818.82 330l-17.32-10 17.32-10m-17.32 10h8.5M729.68 380.52l.8 4.92m.78 4.92l1.57 9.83m.8 4.9l1.56 9.84m.78 4.9l1.57 9.84m.8 4.92l1.56 9.83m.8 4.92l1.57 9.83m.78 4.92l1.58 9.83m.78 4.9l1.6 9.85m.77 4.9l1.58 9.84m.78 4.92l1.58 9.83m.8 4.92l1.57 9.82m.78 4.92l1.58 9.83m.78 4.9l1.6 9.84m.77 4.93l1.58 9.83m.78 4.92l1.58 9.83m.8 4.93l1.57 9.83m.78 4.9l1.58 9.85m.78 4.92l1.58 9.83m.8 4.92l1.56 9.83m.8 4.92l1.56 9.83m.8 4.92l1.56 9.83m.8 4.9l1.56 9.84m.8 4.92l1.56 9.83m.8 4.9l1.56 9.84m.8 4.92l1.56 9.83m.8 4.9l1.56 9.84m.8 4.9l1.56 9.84m.8 4.92l1.56 9.83m.8 4.92l1.56 9.83m.8 4.9l1.56 9.85m.8 4.9l1.56 9.84m.8 4.92l1.56 9.82m.8 4.92l1.56 9.83m.8 4.92l1.56 9.82m.78 4.9l1.58 9.85m.78 4.9l1.58 9.84m.8 4.93l1.56 9.83m.78 4.92l1.58 9.83m.78 4.92l1.58 9.84m.78 4.9l1.58 9.84m.78 4.92l1.58 9.83m.78 4.92l1.58 9.83m.78 4.92l1.58 9.83m.78 4.9l1.57 9.85m.8 4.9l1.56 9.84m.78 4.92l1.57 9.83m.8 4.9l1.56 9.84m.8 4.92l1.57 9.83m.8 4.9l1.56 9.83m.8 4.92l1.56 9.83m.78 4.92l1.57 9.83m.8 4.92l1.56 9.83m.8 4.9l1.57 9.85m.8 4.9l1.56 9.84m.8 4.92l1.56 9.82m.78 4.92l1.57 9.83m.8 4.9l1.56 9.85m.8 4.9l1.57 9.84m.8 4.92l1.56 9.83m.8 4.93l.77 4.9" stroke="#333" fill="none"/><path d="M730.15 380.46l-.93.15-.1-.52.96-.1z" stroke="#333" stroke-width=".05" fill="#333"/><path d="M877.38 1240.3l-7.14 18.68-12.6-15.52m12.6 15.52l-1.35-8.4" stroke="#333" fill="none"/><path d="M1180 440c0 33.14-35.82 60-80 60s-80-26.86-80-60 35.82-60 80-60 80 26.86 80 60z" stroke="#fff" fill="#3278cc"/><use xlink:href="#G" transform="matrix(1,0,0,1,1044,404) translate(24.273437499999996 32.01197916666666)"/><use xlink:href="#H" transform="matrix(1,0,0,1,1044,404) translate(20.98776041666666 52.016666666666666)"/><path d="M1180.9 439.7l261.74-182.73" stroke="#333" fill="none"/><path d="M1181.2 440.1l-.72.5.02-.6V439.44l.15-.1z" stroke="#333" stroke-width=".05" fill="#333"/><path d="M1442.63 256.98l2.88-2" stroke="#333" fill="none"/><path d="M1280 760c0 33.14-35.82 60-80 60s-80-26.86-80-60 35.82-60 80-60 80 26.86 80 60z" stroke="#fff" fill="#3278cc"/><use xlink:href="#w" transform="matrix(1,0,0,1,1144,724) translate(17.855468749999993 32.01197916666666)"/><use xlink:href="#I" transform="matrix(1,0,0,1,1144,724) translate(21.391406249999996 52.016666666666666)"/><path d="M1200.25 699.07l242.55-420.3" stroke="#333" fill="none"/><path d="M1200.67 699.3l-.13.22-.53-.02h-.55l.4-.68z" stroke="#333" stroke-width=".05" fill="#333"/><path d="M1442.8 278.77l1.75-3.04" stroke="#333" fill="none"/><path d="M1200 600c0 33.14-35.82 60-80 60s-80-26.86-80-60 35.82-60 80-60 80 26.86 80 60z" stroke="#fff" fill="#3278cc"/><use xlink:href="#A" transform="matrix(1,0,0,1,1064,564) translate(17.855468749999993 32.01197916666666)"/><use xlink:href="#J" transform="matrix(1,0,0,1,1064,564) translate(8.971223958333326 52.016666666666666)"/><path d="M1120.38 539.18l322.3-269.07" stroke="#333" fill="none"/><path d="M1120.7 539.52l-.7-.02h-.74l.83-.7z" stroke="#333" stroke-width=".05" fill="#333"/><path d="M1442.66 270.1l2.7-2.24" stroke="#333" fill="none"/><path d="M1421.28 1301.5v-.22a21.28 21.28 0 0 1 21.27-21.28 21.28 21.28 0 0 1 21.28 21.28 21.28 21.28 0 0 1-21.28 21.27 21.28 21.28 0 0 1-21.27-21.27v-.22" stroke="#333" fill="#fff"/><path d="M1400 1285a5 5 0 0 1 5-5h75.1a5 5 0 0 1 5 5v166.53a5 5 0 0 1-5 5H1405a5 5 0 0 1-5-5z" fill="none"/><path d="M1442.55 1322.55v63.37l42.56 70.6m-42.55-70.6l-42.55 70.6m0-112.7h85.1" stroke="#333" fill="none"/><use xlink:href="#K" transform="matrix(1,0,0,1,1320,1456.5294117647059) translate(83.075390625 18.011979166666666)"/><path d="M1260 1418.53c0 33.14-35.82 60-80 60s-80-26.86-80-60 35.82-60 80-60 80 26.86 80 60z" stroke="#fff" fill="#3278cc"/><use xlink:href="#L" transform="matrix(1,0,0,1,1124,1382.5294117647059) translate(30.78020833333333 22.009635416666665)"/><use xlink:href="#M" transform="matrix(1,0,0,1,1124,1382.5294117647059) translate(2.3514322916666615 42.01432291666667)"/><use xlink:href="#N" transform="matrix(1,0,0,1,1124,1382.5294117647059) translate(74.57174479166667 42.01432291666667)"/><use xlink:href="#O" transform="matrix(1,0,0,1,1124,1382.5294117647059) translate(24.971744791666666 62.019010416666674)"/><path d="M1261 1418.42l180.56-38.73" stroke="#333" fill="none"/><path d="M1261.1 1418.9l-.62.12.02-.48v-.5l.4-.08z" stroke="#333" stroke-width=".05" fill="#333"/><path d="M1441.55 1379.7l3.44-.74M1105.76 1394.15l-4.76-1.57m-4.77-1.56l-9.54-3.13m-4.78-1.58l-9.53-3.13m-4.78-1.58l-9.53-3.13m-4.78-1.58l-9.54-3.13m-4.76-1.57l-9.54-3.14m-4.77-1.57l-9.52-3.13m-4.77-1.57l-9.52-3.13m-4.77-1.57l-9.53-3.13m-4.77-1.56l-9.53-3.14m-4.77-1.56l-4.77-1.57" stroke="#333" fill="none"/><path d="M1106.48 1393.88l-.5.84-.38-.13.3-.9z" stroke="#333" stroke-width=".05" fill="#333"/><path d="M968.05 1359.44l-13.34-14.9 19.6-4.1m-19.6 4.1l8.1 2.65M1312.23 1046.62l124.04 296.25" stroke="#333" fill="none"/><path d="M1312.68 1046.44l-.88.37-.17-.4.64-.38.18-.12z" stroke="#333" stroke-width=".05" fill="#333"/><path d="M1436.26 1342.86l1.36 3.24" stroke="#333" fill="none"/><path d="M1340 1000c0 33.14-35.82 60-80 60s-80-26.86-80-60 35.82-60 80-60 80 26.86 80 60z" stroke="#fff" fill="#3278cc"/><g><use xlink:href="#P" transform="matrix(1,0,0,1,1204,964) translate(18.91302083333332 32.01197916666666)"/><use xlink:href="#Q" transform="matrix(1,0,0,1,1204,964) translate(22.21484375 52.016666666666666)"/></g><path d="M1244.96 940.08l-1.73-4.62m-1.74-4.6l-3.48-9.24m-1.73-4.6l-3.48-9.24m-1.74-4.62l-3.47-9.22m-1.72-4.62l-3.47-9.23m-1.73-4.62l-3.47-9.23m-1.73-4.6l-3.47-9.24m-1.74-4.6l-3.47-9.23m-1.74-4.62l-1.74-4.6" stroke="#333" fill="none"/><path d="M1245.6 940.47l-.94.16-.15-.4.9-.33z" stroke="#333" stroke-width=".05" fill="#333"/><path d="M1197.1 841.17l3.25-19.73 15.46 12.7m-15.45-12.7l3 7.95M1168.93 1252.03l272.66 117.7" stroke="#333" fill="none"/><path d="M1169.13 1251.6l-.38.87-.6-.26.4-.46.23-.3z" stroke="#333" stroke-width=".05" fill="#333"/><path d="M1441.58 1369.72l3.23 1.4M720.8 460.4l23.95 29.92c2.16-1.73 5.3-1.38 7.03.78 1.73 2.15 1.38 5.3-.78 7.02l690.74 863.47" stroke="#333" fill="none"/><path d="M721.2 460.1l-.72.57.02-.66v-.4l-.02-.38z" stroke="#333" stroke-width=".05" fill="#333"/><path d="M1441.73 1361.58l2.2 2.75" stroke="#333" fill="none"/><path d="M1180 1220c0 33.14-35.82 60-80 60s-80-26.86-80-60 35.82-60 80-60 80 26.86 80 60z" stroke="#fff" fill="#3278cc"/><g><use xlink:href="#w" transform="matrix(1,0,0,1,1044,1184) translate(17.855468749999993 32.01197916666666)"/><use xlink:href="#R" transform="matrix(1,0,0,1,1044,1184) translate(6.57760416666666 52.016666666666666)"/></g><defs><path fill="#333" d="M605 22C247 22 24-145 68-462h297c-14 151 94 226 259 226 162 0 283-76 302-190 17-102-68-149-225-189l-158-41c-235-59-372-183-336-404 43-269 290-450 614-450 328 0 536 182 498 445h-294c8-119-76-188-229-188-156 0-256 72-273 172-30 154 195 185 336 221 239 61 415 185 374 436-45 271-266 446-628 446" id="S"/><path fill="#333" d="M36 0l185-1118h300L336 0H36zm359-1264c-91 0-153-69-139-154 14-84 99-154 190-154 89 0 153 67 139 154-14 86-100 154-190 154" id="T"/><path fill="#333" d="M490 22C212 20 43-104 37-315l281-29c11 104 65 146 186 146 109 0 214-47 222-128 5-51-29-84-119-104l-186-40c-195-42-289-149-277-303 14-232 242-359 510-359 274 2 415 119 430 308l-267 27c-11-76-56-120-162-120-98 0-203 45-211 128-6 50 24 83 118 104l194 40c196 41 291 138 279 289-15 238-265 378-545 378" id="U"/><path fill="#333" d="M776-1118l-37 229H530l-93 562c-12 72 14 104 85 104 23 0 74-7 97-13l5 225C555 8 488 16 426 16 201 16 99-97 132-301l98-588H76l37-229h155l44-266h300l-44 266h208" id="V"/><path fill="#333" d="M552 24C254 24 71-146 71-432c0-377 264-705 643-705 236 0 413 123 413 326 0 251-270 329-766 342-10 155 35 265 213 267 113 0 207-50 245-134l269 36C1015-105 814 24 552 24zM392-650c368-7 456-43 456-146 0-71-63-115-165-115-165 0-251 126-291 261" id="W"/><path fill="#333" d="M35 0l186-1118h278l-23 203c87-158 215-220 340-220 150 0 232 87 258 250 89-176 240-250 390-250 212 0 348 148 307 391L1648 0h-301l118-707c21-127-40-177-131-177-124 0-216 90-235 206L986 0H696l119-715c18-110-37-169-130-169-113 0-217 83-240 218L335 0H35" id="X"/><path fill="#333" d="M441 19C184 19 19-186 81-558c63-382 303-574 550-574 189 0 259 113 285 202h10l31-188h299L1071 0H776l29-179h-14C733-87 623 19 441 19zm133-241c154 0 263-135 296-336 34-204-31-334-185-334-159 0-264 139-296 334-33 197 29 336 185 336" id="Y"/><g id="a"><use transform="matrix(0.010091145833333334,0,0,0.010091145833333334,0,0)" xlink:href="#S"/><use transform="matrix(0.010091145833333334,0,0,0.010091145833333334,13.522135416666668,0)" xlink:href="#T"/><use transform="matrix(0.010091145833333334,0,0,0.010091145833333334,19.1328125,0)" xlink:href="#U"/><use transform="matrix(0.010091145833333334,0,0,0.010091145833333334,30.697265625,0)" xlink:href="#V"/><use transform="matrix(0.010091145833333334,0,0,0.010091145833333334,38.083984375,0)" xlink:href="#W"/><use transform="matrix(0.010091145833333334,0,0,0.010091145833333334,50.27408854166667,0)" xlink:href="#X"/><use transform="matrix(0.010091145833333334,0,0,0.010091145833333334,69.13444010416667,0)" xlink:href="#Y"/></g><path fill="#333" d="M698 20c-339 0-559-226-559-600 0-470 305-930 790-930 306 0 529 181 531 489h-190c-8-202-157-313-348-313-373 0-599 380-599 749 0 281 158 429 382 429 202 0 399-111 474-313h191C1267-166 997 20 698 20" id="Z"/><path fill="#333" d="M528 24C258 24 94-156 94-433c0-355 229-699 603-699 270 0 436 178 436 458 0 359-234 698-605 698zm4-161c275 0 420-287 420-533 0-170-77-301-260-301-271 0-418 288-418 536 0 168 77 298 258 298" id="aa"/><path fill="#333" d="M66 0l185-1118h174l-28 172h12c78-136 219-209 411-185l-30 181c-211-47-398 67-428 250L246 0H66" id="ab"/><path fill="#333" d="M492 24C248 24 94-147 94-425c0-352 212-707 569-707 222 0 274 136 303 198h12l92-556h181L1004 0H829l30-173h-19C792-103 700 24 492 24zm32-161c268 0 407-295 407-549 0-175-80-285-247-285-266 0-408 283-408 536 0 174 79 298 248 298" id="ac"/><path fill="#333" d="M535 24C259 24 94-144 94-427c0-392 272-715 610-715 216 0 356 119 356 305 0 244-237 344-790 350-18 199 49 349 276 352 142 0 260-66 317-173l167 47C947-85 756 24 535 24zM294-623c447-4 586-57 586-218 0-85-78-141-194-141-220 0-342 177-392 359" id="ad"/><path fill="#333" d="M356-664L245 0H65l186-1118h173l-32 197c96-152 219-211 366-211 232 0 366 145 319 428L960 0H779l117-701c29-174-48-269-198-269-165 0-310 115-342 306" id="ae"/><path fill="#333" d="M481 24C202 24 45-202 104-557s293-575 571-575c216 0 263 132 291 193h15l29-179h181L1006 0H831l28-173h-21C788-107 693 24 481 24zm56-161c204 0 342-174 383-422s-41-412-245-412c-215 0-350 183-388 412-39 235 39 422 250 422" id="af"/><g id="b"><use transform="matrix(0.008072916666666667,0,0,0.008072916666666667,0,0)" xlink:href="#Z"/><use transform="matrix(0.008072916666666667,0,0,0.008072916666666667,12.069010416666668,0)" xlink:href="#aa"/><use transform="matrix(0.008072916666666667,0,0,0.008072916666666667,21.990625,0)" xlink:href="#aa"/><use transform="matrix(0.008072916666666667,0,0,0.008072916666666667,31.912239583333335,0)" xlink:href="#ab"/><use transform="matrix(0.008072916666666667,0,0,0.008072916666666667,37.870052083333334,0)" xlink:href="#ac"/><use transform="matrix(0.008072916666666667,0,0,0.008072916666666667,48.001562500000006,0)" xlink:href="#ad"/><use transform="matrix(0.008072916666666667,0,0,0.008072916666666667,57.51953125000001,0)" xlink:href="#ae"/><use transform="matrix(0.008072916666666667,0,0,0.008072916666666667,67.29583333333335,0)" xlink:href="#af"/><use transform="matrix(0.008072916666666667,0,0,0.008072916666666667,77.44348958333335,0)" xlink:href="#ac"/><use transform="matrix(0.008072916666666667,0,0,0.008072916666666667,87.57500000000002,0)" xlink:href="#aa"/><use transform="matrix(0.008072916666666667,0,0,0.008072916666666667,97.49661458333335,0)" xlink:href="#ab"/></g><path fill="#333" d="M-41 0l788-1490h220L1268 0h-192l-80-416H383L169 0H-41zm509-582h497c-56-293-77-375-126-756-162 359-224 468-371 756" id="ag"/><path fill="#333" d="M585 0H87l247-1490h460c436 0 670 281 593 744C1309-277 1035 0 585 0zM305-168h262c366 0 577-221 636-580s-82-574-426-574H496" id="ah"/><path fill="#333" d="M87 0l247-1490h270l211 940c16 74 39 220 54 339 57-123 125-267 165-339l519-940h271L1577 0h-187c75-441 134-849 220-1287C1371-790 1163-459 914 0H749C649-458 553-779 473-1282 408-826 339-440 268 0H87" id="ai"/><g id="c"><use transform="matrix(0.008072916666666667,0,0,0.008072916666666667,0,0)" xlink:href="#ag"/><use transform="matrix(0.008072916666666667,0,0,0.008072916666666667,11.407031250000001,0)" xlink:href="#ah"/><use transform="matrix(0.008072916666666667,0,0,0.008072916666666667,23.33072916666667,0)" xlink:href="#ai"/></g><path fill="#333" d="M507 0L206-1490h200c85 478 172 817 237 1337 237-524 428-852 670-1337h202L726 0H507" id="aj"/><path fill="#333" d="M66 0l185-1118h180L246 0H66zm307-1301c-71 0-117-55-106-119s74-119 145-119c65 0 117 50 106 118s-78 120-145 120" id="ak"/><path fill="#333" d="M451 24C217 22 71-78 61-277l174-29c11 123 90 172 219 172 161 0 280-83 297-181 11-71-30-117-135-143l-179-44c-195-48-280-153-253-316 31-186 223-314 455-314 233 4 337 107 366 275l-165 30c-18-80-65-152-204-152-138 0-256 75-272 174-13 77 32 118 158 149l162 40c195 48 278 154 252 313C904-113 708 24 451 24" id="al"/><path fill="#333" d="M691-1118l-25 154H437L325-290c-17 103 16 144 108 144 23 0 63-6 94-12L538-6c-36 12-87 20-136 20-196 0-290-109-260-290l114-688H88l25-154h169l44-266h180l-44 266h229" id="am"/><g id="d"><use transform="matrix(0.008072916666666667,0,0,0.008072916666666667,0,0)" xlink:href="#aj"/><use transform="matrix(0.008072916666666667,0,0,0.008072916666666667,11.407031250000001,0)" xlink:href="#ak"/><use transform="matrix(0.008072916666666667,0,0,0.008072916666666667,15.419270833333336,0)" xlink:href="#al"/><use transform="matrix(0.008072916666666667,0,0,0.008072916666666667,24.138020833333336,0)" xlink:href="#ak"/><use transform="matrix(0.008072916666666667,0,0,0.008072916666666667,28.15026041666667,0)" xlink:href="#am"/><use transform="matrix(0.008072916666666667,0,0,0.008072916666666667,33.41380208333334,0)" xlink:href="#af"/><use transform="matrix(0.008072916666666667,0,0,0.008072916666666667,43.561458333333334,0)" xlink:href="#ae"/><use transform="matrix(0.008072916666666667,0,0,0.008072916666666667,53.33776041666667,0)" xlink:href="#am"/><use transform="matrix(0.008072916666666667,0,0,0.008072916666666667,58.60130208333334,0)" xlink:href="#ad"/></g><path fill="#fff" d="M87 0l247-1490h510c346 0 473 206 430 472s-238 479-586 479H366L277 0H87zm307-706h312c241 0 351-138 379-311s-39-306-279-306H496" id="an"/><path fill="#fff" d="M528 24C258 24 94-156 94-433c0-355 229-699 603-699 270 0 436 178 436 458 0 359-234 698-605 698zm4-161c275 0 420-287 420-533 0-170-77-301-260-301-271 0-418 288-418 536 0 168 77 298 258 298" id="ao"/><path fill="#fff" d="M492 24C248 24 94-147 94-425c0-352 212-707 569-707 222 0 274 136 303 198h12l92-556h181L1004 0H829l30-173h-19C792-103 700 24 492 24zm32-161c268 0 407-295 407-549 0-175-80-285-247-285-266 0-408 283-408 536 0 174 79 298 248 298" id="ap"/><path fill="#fff" d="M535 24C259 24 94-144 94-427c0-392 272-715 610-715 216 0 356 119 356 305 0 244-237 344-790 350-18 199 49 349 276 352 142 0 260-66 317-173l167 47C947-85 756 24 535 24zM294-623c447-4 586-57 586-218 0-85-78-141-194-141-220 0-342 177-392 359" id="aq"/><g id="e"><use transform="matrix(0.008072916666666667,0,0,0.008072916666666667,0,0)" xlink:href="#an"/><use transform="matrix(0.008072916666666667,0,0,0.008072916666666667,10.470572916666669,0)" xlink:href="#ao"/><use transform="matrix(0.008072916666666667,0,0,0.008072916666666667,20.392187500000002,0)" xlink:href="#ap"/><use transform="matrix(0.008072916666666667,0,0,0.008072916666666667,30.52369791666667,0)" xlink:href="#aq"/></g><path fill="#fff" d="M451 24C217 22 71-78 61-277l174-29c11 123 90 172 219 172 161 0 280-83 297-181 11-71-30-117-135-143l-179-44c-195-48-280-153-253-316 31-186 223-314 455-314 233 4 337 107 366 275l-165 30c-18-80-65-152-204-152-138 0-256 75-272 174-13 77 32 118 158 149l162 40c195 48 278 154 252 313C904-113 708 24 451 24" id="ar"/><g id="f"><use transform="matrix(0.008072916666666667,0,0,0.008072916666666667,0,0)" xlink:href="#ar"/><use transform="matrix(0.008072916666666667,0,0,0.008072916666666667,8.71875,0)" xlink:href="#aq"/></g><path fill="#fff" d="M528 24C258 24 94-156 94-433c0-354 228-699 603-699 222 0 381 120 410 314l-176 39c-14-114-95-192-238-192-272 0-419 288-419 536 0 167 76 298 258 298 155 0 277-90 329-211l166 58C935-93 745 24 528 24" id="as"/><path fill="#fff" d="M481 24C202 24 45-202 104-557s293-575 571-575c216 0 263 132 291 193h15l29-179h181L1006 0H831l28-173h-21C788-107 693 24 481 24zm56-161c204 0 342-174 383-422s-41-412-245-412c-215 0-350 183-388 412-39 235 39 422 250 422" id="at"/><path fill="#fff" d="M691-1118l-25 154H437L325-290c-17 103 16 144 108 144 23 0 63-6 94-12L538-6c-36 12-87 20-136 20-196 0-290-109-260-290l114-688H88l25-154h169l44-266h180l-44 266h229" id="au"/><path fill="#fff" d="M66 0l185-1118h174l-28 172h12c78-136 219-209 411-185l-30 181c-211-47-398 67-428 250L246 0H66" id="av"/><g id="g"><use transform="matrix(0.008072916666666667,0,0,0.008072916666666667,0,0)" xlink:href="#as"/><use transform="matrix(0.008072916666666667,0,0,0.008072916666666667,9.453385416666668,0)" xlink:href="#at"/><use transform="matrix(0.008072916666666667,0,0,0.008072916666666667,19.601041666666667,0)" xlink:href="#ap"/><use transform="matrix(0.008072916666666667,0,0,0.008072916666666667,29.732552083333335,0)" xlink:href="#at"/><use transform="matrix(0.008072916666666667,0,0,0.008072916666666667,39.880208333333336,0)" xlink:href="#ar"/><use transform="matrix(0.008072916666666667,0,0,0.008072916666666667,48.598958333333336,0)" xlink:href="#au"/><use transform="matrix(0.008072916666666667,0,0,0.008072916666666667,54.02395833333334,0)" xlink:href="#av"/><use transform="matrix(0.008072916666666667,0,0,0.008072916666666667,59.98177083333334,0)" xlink:href="#at"/><use transform="matrix(0.008072916666666667,0,0,0.008072916666666667,70.12942708333334,0)" xlink:href="#av"/></g><path fill="#fff" d="M180 0v-1490h510c348 0 508 194 508 460 0 198-88 351-276 417L1256 0h-220L726-579c-117 2-238 0-356 1V0H180zm190-747h312c235 0 327-108 327-283 0-177-92-293-329-293H370v576" id="aw"/><path fill="#fff" d="M628 24c-324 0-524-230-524-574 0-343 198-582 503-582 237 0 487 146 487 559v75H286c9 234 145 362 343 362 132 0 231-58 273-172l174 48C1024-91 857 24 628 24zM287-650h624c-17-190-120-322-304-322-192 0-309 151-320 322" id="ax"/><path fill="#fff" d="M471 26C259 26 90-98 90-318c0-256 228-303 435-329 202-27 287-16 287-108 0-139-79-219-234-219-161 0-248 86-283 164l-173-57c86-203 278-265 451-265 150 0 419 46 419 395V0H815v-152h-12C765-73 660 26 471 26zm31-159c199 0 310-134 310-271v-155c-30 35-226 55-295 64-131 17-246 59-246 186 0 116 97 176 231 176" id="ay"/><path fill="#fff" d="M338-1490V0H158v-1490h180" id="az"/><path fill="#fff" d="M158 0v-1118h180V0H158zm91-1301c-68 0-125-53-125-119s57-119 125-119c69 0 126 53 126 119s-57 119-126 119" id="aA"/><path fill="#fff" d="M126 0v-134l627-806v-11H146v-167h839v143L376-178v11h629V0H126" id="aB"/><path fill="#fff" d="M158 0v-1118h174v172h12c41-113 157-188 290-188 26 0 70 2 91 3v181c-11-2-60-10-108-10-161 0-279 109-279 260V0H158" id="aC"/><g id="h"><use transform="matrix(0.008072916666666667,0,0,0.008072916666666667,0,0)" xlink:href="#aw"/><use transform="matrix(0.008072916666666667,0,0,0.008072916666666667,10.397916666666667,0)" xlink:href="#ax"/><use transform="matrix(0.008072916666666667,0,0,0.008072916666666667,20.198437500000004,0)" xlink:href="#ay"/><use transform="matrix(0.008072916666666667,0,0,0.008072916666666667,29.482291666666672,0)" xlink:href="#az"/><use transform="matrix(0.008072916666666667,0,0,0.008072916666666667,33.48645833333334,0)" xlink:href="#aA"/><use transform="matrix(0.008072916666666667,0,0,0.008072916666666667,37.49062500000001,0)" xlink:href="#aB"/><use transform="matrix(0.008072916666666667,0,0,0.008072916666666667,46.62109375000001,0)" xlink:href="#ay"/><use transform="matrix(0.008072916666666667,0,0,0.008072916666666667,55.90494791666667,0)" xlink:href="#aC"/></g><path fill="#fff" d="M180 0v-1490h190v1322h690V0H180" id="aD"/><path fill="#fff" d="M613 24c-304 0-509-231-509-576 0-350 205-580 509-580 305 0 511 230 511 580 0 345-206 576-511 576zm0-161c226 0 329-195 329-415 0-222-103-419-329-419-223 0-326 196-326 419 0 220 103 415 326 415" id="aE"/><path fill="#fff" d="M611 442c-248 0-391-105-460-228l146-94c47 65 117 165 314 165 178 0 307-82 307-266v-224h-17C863-141 792-18 576-18c-268 0-472-195-472-546 0-346 197-568 476-568 216 0 288 133 326 193h17v-179h175V29c0 289-215 413-487 413zm-5-620c203 0 314-146 314-390 0-237-108-403-314-403-213 0-319 180-319 403 0 230 109 390 319 390" id="aF"/><path fill="#fff" d="M338-670V0H158v-1118h173l1 207c72-158 192-221 342-221 226 0 378 139 378 422V0H872v-695c0-172-96-275-252-275-161 0-282 109-282 300" id="aG"/><g id="i"><use transform="matrix(0.008072916666666667,0,0,0.008072916666666667,0,0)" xlink:href="#aD"/><use transform="matrix(0.008072916666666667,0,0,0.008072916666666667,9.348437500000001,0)" xlink:href="#aE"/><use transform="matrix(0.008072916666666667,0,0,0.008072916666666667,19.26197916666667,0)" xlink:href="#aF"/><use transform="matrix(0.008072916666666667,0,0,0.008072916666666667,29.401562500000004,0)" xlink:href="#aA"/><use transform="matrix(0.008072916666666667,0,0,0.008072916666666667,33.405729166666674,0)" xlink:href="#aG"/></g><g id="j"><use transform="matrix(0.008072916666666667,0,0,0.008072916666666667,0,0)" xlink:href="#aw"/><use transform="matrix(0.008072916666666667,0,0,0.008072916666666667,10.397916666666667,0)" xlink:href="#ax"/><use transform="matrix(0.008072916666666667,0,0,0.008072916666666667,20.198437500000004,0)" xlink:href="#ay"/><use transform="matrix(0.008072916666666667,0,0,0.008072916666666667,29.482291666666672,0)" xlink:href="#az"/><use transform="matrix(0.008072916666666667,0,0,0.008072916666666667,33.48645833333334,0)" xlink:href="#aA"/><use transform="matrix(0.008072916666666667,0,0,0.008072916666666667,37.49062500000001,0)" xlink:href="#aB"/><use transform="matrix(0.008072916666666667,0,0,0.008072916666666667,46.62109375000001,0)" xlink:href="#ay"/><use transform="matrix(0.008072916666666667,0,0,0.008072916666666667,55.90494791666667,0)" xlink:href="#aC"/></g><path fill="#fff" d="M613 24c-304 0-509-231-509-576 0-350 205-580 509-580 216 0 392 114 453 309l-173 49c-33-115-133-197-280-197-223 0-326 196-326 419 0 220 103 415 326 415 150 0 252-85 285-206l172 49C1010-95 832 24 613 24" id="aH"/><path fill="#fff" d="M338-670V0H158v-1490h180v566c73-149 190-208 336-208 226 0 379 139 379 422V0H872v-695c0-172-96-275-252-275-161 0-282 109-282 300" id="aI"/><path fill="#fff" d="M158 0v-1490h180v865h22l478-493h223L593-638 1096 0H865L456-523 338-412V0H158" id="aJ"/><path fill="#fff" d="M798-719v166H144v-166h654" id="aK"/><g id="k"><use transform="matrix(0.008072916666666667,0,0,0.008072916666666667,0,0)" xlink:href="#aH"/><use transform="matrix(0.008072916666666667,0,0,0.008072916666666667,9.445312500000002,0)" xlink:href="#aI"/><use transform="matrix(0.008072916666666667,0,0,0.008072916666666667,19.221614583333334,0)" xlink:href="#ax"/><use transform="matrix(0.008072916666666667,0,0,0.008072916666666667,28.860677083333336,0)" xlink:href="#aH"/><use transform="matrix(0.008072916666666667,0,0,0.008072916666666667,38.305989583333336,0)" xlink:href="#aJ"/><use transform="matrix(0.008072916666666667,0,0,0.008072916666666667,46.62916666666666,0)" xlink:href="#aK"/><use transform="matrix(0.008072916666666667,0,0,0.008072916666666667,54.23385416666666,0)" xlink:href="#aA"/><use transform="matrix(0.008072916666666667,0,0,0.008072916666666667,58.23802083333333,0)" xlink:href="#aG"/></g><path fill="#fff" d="M657 26c-323 0-524-166-541-416h195c15 169 171 246 346 246 202 0 356-106 356-265 5-203-294-238-475-293-239-73-380-191-380-389 0-252 224-419 512-419 294 0 499 171 508 396H992c-17-145-151-228-328-228-193 0-321 102-321 242 0 156 175 211 284 241l149 41c160 44 422 134 422 412 0 244-197 432-541 432" id="aL"/><path fill="#fff" d="M537 14c-226 0-379-139-379-422v-710h180v695c0 172 97 275 253 275 160 0 281-109 281-300v-670h181V0H879v-209C806-46 684 14 537 14" id="aM"/><path fill="#fff" d="M538 24C308 24 148-78 108-271l171-41c32 123 123 178 257 178 156 0 256-77 256-169 0-77-54-128-164-154l-186-44c-203-48-300-148-300-305 0-192 176-326 414-326 230 0 351 112 402 269l-163 42c-31-80-94-158-238-158-133 0-233 69-233 162 0 83 57 129 188 160l169 40c203 48 298 149 298 302 0 196-179 339-441 339" id="aN"/><path fill="#fff" d="M598-1118v154H368v674c0 100 37 144 132 144 23 0 62-6 92-12L629-6c-37 13-88 20-134 20-193 0-307-107-307-290v-688H20v-154h168v-266h180v266h230" id="aO"/><path fill="#fff" d="M471 26C259 26 90-98 90-318c0-256 228-303 435-329 202-27 287-16 287-108 0-139-79-219-234-219-161 0-248 86-283 164l-173-57c86-203 278-265 451-265 150 0 419 46 419 395V0H815v-152h-12C765-73 660 26 471 26zm31-159c199 0 310-134 310-271v-155c-30 35-226 55-295 64-131 17-246 59-246 186 0 116 97 176 231 176zm187-1180c-99 0-192-83-243-83-35 0-51 40-53 79H267c4-120 55-208 162-208 104 0 174 85 241 85 33 0 49-23 56-81h123c-4 126-62 208-160 208" id="aP"/><g id="l"><use transform="matrix(0.008072916666666667,0,0,0.008072916666666667,0,0)" xlink:href="#aL"/><use transform="matrix(0.008072916666666667,0,0,0.008072916666666667,10.607812500000001,0)" xlink:href="#aM"/><use transform="matrix(0.008072916666666667,0,0,0.008072916666666667,20.384114583333336,0)" xlink:href="#aF"/><use transform="matrix(0.008072916666666667,0,0,0.008072916666666667,30.52369791666667,0)" xlink:href="#ax"/><use transform="matrix(0.008072916666666667,0,0,0.008072916666666667,40.16276041666667,0)" xlink:href="#aN"/><use transform="matrix(0.008072916666666667,0,0,0.008072916666666667,48.88958333333334,0)" xlink:href="#aO"/><use transform="matrix(0.008072916666666667,0,0,0.008072916666666667,54.37916666666667,0)" xlink:href="#aP"/><use transform="matrix(0.008072916666666667,0,0,0.008072916666666667,63.663020833333334,0)" xlink:href="#aE"/></g><path fill="#fff" d="M180 0v-1490h901v168H370v510h643v168H370V0H180" id="aQ"/><path fill="#fff" d="M158 0v-1118h175l1 205c55-151 181-225 313-225 147 0 245 90 285 228 53-141 190-228 352-228 194 0 352 125 352 384V0h-181v-749c0-161-105-225-225-225-151 0-243 103-243 244V0H807v-767c0-124-93-207-219-207-131 0-250 92-250 270V0H158" id="aR"/><g id="m"><use transform="matrix(0.008072916666666667,0,0,0.008072916666666667,0,0)" xlink:href="#aQ"/><use transform="matrix(0.008072916666666667,0,0,0.008072916666666667,9.760156250000001,0)" xlink:href="#aA"/><use transform="matrix(0.008072916666666667,0,0,0.008072916666666667,13.764322916666668,0)" xlink:href="#az"/><use transform="matrix(0.008072916666666667,0,0,0.008072916666666667,17.768489583333334,0)" xlink:href="#aR"/><use transform="matrix(0.008072916666666667,0,0,0.008072916666666667,32.251302083333336,0)" xlink:href="#aE"/><use transform="matrix(0.008072916666666667,0,0,0.008072916666666667,42.16484375,0)" xlink:href="#aO"/><use transform="matrix(0.008072916666666667,0,0,0.008072916666666667,47.41223958333333,0)" xlink:href="#ax"/><use transform="matrix(0.008072916666666667,0,0,0.008072916666666667,57.05130208333333,0)" xlink:href="#aH"/><use transform="matrix(0.008072916666666667,0,0,0.008072916666666667,66.65807291666667,0)" xlink:href="#ay"/></g><path fill="#fff" d="M481 0L54-1118h197c107 314 236 620 325 951 87-331 217-637 324-951h197L670 0H481" id="aS"/><g id="n"><use transform="matrix(0.008072916666666667,0,0,0.008072916666666667,0,0)" xlink:href="#aw"/><use transform="matrix(0.008072916666666667,0,0,0.008072916666666667,10.397916666666667,0)" xlink:href="#ax"/><use transform="matrix(0.008072916666666667,0,0,0.008072916666666667,20.03697916666667,0)" xlink:href="#aN"/><use transform="matrix(0.008072916666666667,0,0,0.008072916666666667,28.76380208333334,0)" xlink:href="#ax"/><use transform="matrix(0.008072916666666667,0,0,0.008072916666666667,38.40286458333334,0)" xlink:href="#aC"/><use transform="matrix(0.008072916666666667,0,0,0.008072916666666667,44.88541666666667,0)" xlink:href="#aS"/><use transform="matrix(0.008072916666666667,0,0,0.008072916666666667,54.09661458333334,0)" xlink:href="#ay"/></g><path fill="#fff" d="M52 0l541-1490h220L1361 0h-200l-149-416H398L254 0H52zm404-582h497c-103-290-145-390-251-756-108 377-145 460-246 756" id="aT"/><path fill="#fff" d="M471 26C259 26 90-98 90-318c0-256 228-303 435-329 202-27 287-16 287-108 0-139-79-219-234-219-161 0-248 86-283 164l-173-57c86-203 278-265 451-265 150 0 419 46 419 395V0H815v-152h-12C765-73 660 26 471 26zm31-159c199 0 310-134 310-271v-155c-30 35-226 55-295 64-131 17-246 59-246 186 0 116 97 176 231 176zm-23-1131l140-294h201l-194 294H479" id="aU"/><g id="o"><use transform="matrix(0.008072916666666667,0,0,0.008072916666666667,0,0)" xlink:href="#aT"/><use transform="matrix(0.008072916666666667,0,0,0.008072916666666667,11.407031250000001,0)" xlink:href="#aC"/><use transform="matrix(0.008072916666666667,0,0,0.008072916666666667,17.889583333333334,0)" xlink:href="#aR"/><use transform="matrix(0.008072916666666667,0,0,0.008072916666666667,32.372395833333336,0)" xlink:href="#aU"/><use transform="matrix(0.008072916666666667,0,0,0.008072916666666667,41.65625,0)" xlink:href="#aC"/><use transform="matrix(0.008072916666666667,0,0,0.008072916666666667,48.13880208333333,0)" xlink:href="#aA"/><use transform="matrix(0.008072916666666667,0,0,0.008072916666666667,52.14296875,0)" xlink:href="#aE"/></g><path fill="#fff" d="M577 24c-279 0-473-224-473-580 0-354 195-576 474-576 218 0 287 134 324 193h14v-551h180V0H922v-173h-20C865-111 790 24 577 24zm27-161c203 0 314-172 314-421 0-247-108-413-314-413-212 0-317 181-317 413 0 235 108 421 317 421" id="aV"/><g id="p"><use transform="matrix(0.008072916666666667,0,0,0.008072916666666667,0,0)" xlink:href="#aT"/><use transform="matrix(0.008072916666666667,0,0,0.008072916666666667,11.407031250000001,0)" xlink:href="#aF"/><use transform="matrix(0.008072916666666667,0,0,0.008072916666666667,21.546614583333337,0)" xlink:href="#ax"/><use transform="matrix(0.008072916666666667,0,0,0.008072916666666667,31.18567708333334,0)" xlink:href="#aG"/><use transform="matrix(0.008072916666666667,0,0,0.008072916666666667,40.95390625,0)" xlink:href="#aV"/><use transform="matrix(0.008072916666666667,0,0,0.008072916666666667,51.077343750000004,0)" xlink:href="#ay"/><use transform="matrix(0.008072916666666667,0,0,0.008072916666666667,60.36119791666667,0)" xlink:href="#aC"/></g><path fill="#fff" d="M600 0L52-1490h200c166 485 304 806 458 1336 156-533 285-846 449-1336h202L819 0H600" id="aW"/><g id="q"><use transform="matrix(0.008072916666666667,0,0,0.008072916666666667,0,0)" xlink:href="#aW"/><use transform="matrix(0.008072916666666667,0,0,0.008072916666666667,11.407031250000001,0)" xlink:href="#aA"/><use transform="matrix(0.008072916666666667,0,0,0.008072916666666667,15.41119791666667,0)" xlink:href="#aN"/><use transform="matrix(0.008072916666666667,0,0,0.008072916666666667,24.138020833333336,0)" xlink:href="#aA"/><use transform="matrix(0.008072916666666667,0,0,0.008072916666666667,28.142187500000002,0)" xlink:href="#aO"/><use transform="matrix(0.008072916666666667,0,0,0.008072916666666667,33.631770833333334,0)" xlink:href="#ay"/></g><g id="r"><use transform="matrix(0.008072916666666667,0,0,0.008072916666666667,0,0)" xlink:href="#aT"/><use transform="matrix(0.008072916666666667,0,0,0.008072916666666667,11.407031250000001,0)" xlink:href="#aM"/><use transform="matrix(0.008072916666666667,0,0,0.008072916666666667,21.183333333333337,0)" xlink:href="#aV"/><use transform="matrix(0.008072916666666667,0,0,0.008072916666666667,31.30677083333334,0)" xlink:href="#aA"/><use transform="matrix(0.008072916666666667,0,0,0.008072916666666667,35.31093750000001,0)" xlink:href="#aO"/><use transform="matrix(0.008072916666666667,0,0,0.008072916666666667,40.55833333333334,0)" xlink:href="#aE"/><use transform="matrix(0.008072916666666667,0,0,0.008072916666666667,50.471875000000004,0)" xlink:href="#aC"/><use transform="matrix(0.008072916666666667,0,0,0.008072916666666667,56.954427083333336,0)" xlink:href="#aA"/><use transform="matrix(0.008072916666666667,0,0,0.008072916666666667,60.958593750000006,0)" xlink:href="#aE"/></g><path fill="#fff" d="M180 0v-1490h908v168H370v486h669v168H370v500h727V0H180" id="aX"/><g id="s"><use transform="matrix(0.008072916666666667,0,0,0.008072916666666667,0,0)" xlink:href="#aX"/><use transform="matrix(0.008072916666666667,0,0,0.008072916666666667,9.937760416666668,0)" xlink:href="#aG"/><use transform="matrix(0.008072916666666667,0,0,0.008072916666666667,19.463802083333334,0)" xlink:href="#aS"/><use transform="matrix(0.008072916666666667,0,0,0.008072916666666667,28.75572916666667,0)" xlink:href="#aA"/><use transform="matrix(0.008072916666666667,0,0,0.008072916666666667,32.75989583333334,0)" xlink:href="#ay"/><use transform="matrix(0.008072916666666667,0,0,0.008072916666666667,42.04375,0)" xlink:href="#aC"/></g><path fill="#fff" d="M677 24c-213 0-288-135-325-197h-20V0H158v-1490h180v551h14c37-59 106-193 324-193 279 0 474 222 474 576 0 356-194 580-473 580zm-27-161c209 0 317-186 317-421 0-232-105-413-317-413-206 0-314 166-314 413 0 249 111 421 314 421" id="aY"/><g id="t"><use transform="matrix(0.008072916666666667,0,0,0.008072916666666667,0,0)" xlink:href="#aQ"/><use transform="matrix(0.008072916666666667,0,0,0.008072916666666667,9.106250000000001,0)" xlink:href="#ax"/><use transform="matrix(0.008072916666666667,0,0,0.008072916666666667,18.745312500000004,0)" xlink:href="#ax"/><use transform="matrix(0.008072916666666667,0,0,0.008072916666666667,28.384375000000006,0)" xlink:href="#aV"/><use transform="matrix(0.008072916666666667,0,0,0.008072916666666667,38.50781250000001,0)" xlink:href="#aY"/><use transform="matrix(0.008072916666666667,0,0,0.008072916666666667,48.792708333333344,0)" xlink:href="#ay"/><use transform="matrix(0.008072916666666667,0,0,0.008072916666666667,58.07656250000001,0)" xlink:href="#aH"/><use transform="matrix(0.008072916666666667,0,0,0.008072916666666667,67.52187500000001,0)" xlink:href="#aJ"/></g><g id="u"><use transform="matrix(0.008072916666666667,0,0,0.008072916666666667,0,0)" xlink:href="#aT"/><use transform="matrix(0.008072916666666667,0,0,0.008072916666666667,11.407031250000001,0)" xlink:href="#aH"/><use transform="matrix(0.008072916666666667,0,0,0.008072916666666667,20.852343750000003,0)" xlink:href="#ax"/><use transform="matrix(0.008072916666666667,0,0,0.008072916666666667,30.491406250000004,0)" xlink:href="#aN"/><use transform="matrix(0.008072916666666667,0,0,0.008072916666666667,39.21822916666667,0)" xlink:href="#aN"/><use transform="matrix(0.008072916666666667,0,0,0.008072916666666667,47.945052083333344,0)" xlink:href="#ay"/><use transform="matrix(0.008072916666666667,0,0,0.008072916666666667,57.22890625000001,0)" xlink:href="#aC"/></g><path fill="#fff" d="M613 24c-304 0-509-231-509-576 0-350 205-580 509-580 305 0 511 230 511 580 0 345-206 576-511 576zm0-161c226 0 329-195 329-415 0-222-103-419-329-419-223 0-326 196-326 419 0 220 103 415 326 415zm-79-1127l140-294h201l-194 294H534" id="aZ"/><g id="v"><use transform="matrix(0.008072916666666667,0,0,0.008072916666666667,0,0)" xlink:href="#aC"/><use transform="matrix(0.008072916666666667,0,0,0.008072916666666667,5.949739583333334,0)" xlink:href="#ax"/><use transform="matrix(0.008072916666666667,0,0,0.008072916666666667,15.588802083333334,0)" xlink:href="#az"/><use transform="matrix(0.008072916666666667,0,0,0.008072916666666667,19.59296875,0)" xlink:href="#ay"/><use transform="matrix(0.008072916666666667,0,0,0.008072916666666667,28.87682291666667,0)" xlink:href="#aO"/><use transform="matrix(0.008072916666666667,0,0,0.008072916666666667,34.124218750000004,0)" xlink:href="#aZ"/><use transform="matrix(0.008072916666666667,0,0,0.008072916666666667,44.03776041666667,0)" xlink:href="#aC"/><use transform="matrix(0.008072916666666667,0,0,0.008072916666666667,50.5203125,0)" xlink:href="#aA"/><use transform="matrix(0.008072916666666667,0,0,0.008072916666666667,54.52447916666667,0)" xlink:href="#aE"/><use transform="matrix(0.008072916666666667,0,0,0.008072916666666667,64.43802083333334,0)" xlink:href="#aN"/></g><path fill="#fff" d="M789 20c-398 0-667-293-667-764 0-473 273-766 655-766 315 0 558 198 612 487h-196c-61-191-204-311-415-311-262 0-471 207-471 590 0 380 208 588 482 588 249 0 420-165 425-427H828v-166h572v163c0 370-256 606-611 606" id="ba"/><g id="w"><use transform="matrix(0.008072916666666667,0,0,0.008072916666666667,0,0)" xlink:href="#ba"/><use transform="matrix(0.008072916666666667,0,0,0.008072916666666667,12.335416666666667,0)" xlink:href="#ax"/><use transform="matrix(0.008072916666666667,0,0,0.008072916666666667,21.97447916666667,0)" xlink:href="#aC"/><use transform="matrix(0.008072916666666667,0,0,0.008072916666666667,27.92421875,0)" xlink:href="#ax"/><use transform="matrix(0.008072916666666667,0,0,0.008072916666666667,37.56328125,0)" xlink:href="#aG"/><use transform="matrix(0.008072916666666667,0,0,0.008072916666666667,47.331510416666674,0)" xlink:href="#aH"/><use transform="matrix(0.008072916666666667,0,0,0.008072916666666667,56.776822916666674,0)" xlink:href="#aA"/><use transform="matrix(0.008072916666666667,0,0,0.008072916666666667,60.780989583333344,0)" xlink:href="#ay"/><use transform="matrix(0.008072916666666667,0,0,0.008072916666666667,70.06484375000001,0)" xlink:href="#aC"/></g><g id="x"><use transform="matrix(0.008072916666666667,0,0,0.008072916666666667,0,0)" xlink:href="#aQ"/><use transform="matrix(0.008072916666666667,0,0,0.008072916666666667,9.760156250000001,0)" xlink:href="#aA"/><use transform="matrix(0.008072916666666667,0,0,0.008072916666666667,13.764322916666668,0)" xlink:href="#az"/><use transform="matrix(0.008072916666666667,0,0,0.008072916666666667,17.768489583333334,0)" xlink:href="#aR"/><use transform="matrix(0.008072916666666667,0,0,0.008072916666666667,32.251302083333336,0)" xlink:href="#aE"/><use transform="matrix(0.008072916666666667,0,0,0.008072916666666667,42.16484375,0)" xlink:href="#aO"/><use transform="matrix(0.008072916666666667,0,0,0.008072916666666667,47.41223958333333,0)" xlink:href="#ax"/><use transform="matrix(0.008072916666666667,0,0,0.008072916666666667,57.05130208333333,0)" xlink:href="#aH"/><use transform="matrix(0.008072916666666667,0,0,0.008072916666666667,66.65807291666667,0)" xlink:href="#ay"/></g><g id="y"><use transform="matrix(0.008072916666666667,0,0,0.008072916666666667,0,0)" xlink:href="#aQ"/><use transform="matrix(0.008072916666666667,0,0,0.008072916666666667,9.760156250000001,0)" xlink:href="#aA"/><use transform="matrix(0.008072916666666667,0,0,0.008072916666666667,13.764322916666668,0)" xlink:href="#az"/><use transform="matrix(0.008072916666666667,0,0,0.008072916666666667,18.010677083333334,0)" xlink:href="#aO"/><use transform="matrix(0.008072916666666667,0,0,0.008072916666666667,23.419531250000002,0)" xlink:href="#aC"/><use transform="matrix(0.008072916666666667,0,0,0.008072916666666667,29.643750000000004,0)" xlink:href="#ay"/><use transform="matrix(0.008072916666666667,0,0,0.008072916666666667,38.92760416666667,0)" xlink:href="#aC"/></g><g id="z"><use transform="matrix(0.008072916666666667,0,0,0.008072916666666667,0,0)" xlink:href="#aQ"/><use transform="matrix(0.008072916666666667,0,0,0.008072916666666667,9.106250000000001,0)" xlink:href="#ax"/><use transform="matrix(0.008072916666666667,0,0,0.008072916666666667,18.745312500000004,0)" xlink:href="#ax"/><use transform="matrix(0.008072916666666667,0,0,0.008072916666666667,28.384375000000006,0)" xlink:href="#aV"/><use transform="matrix(0.008072916666666667,0,0,0.008072916666666667,38.50781250000001,0)" xlink:href="#aY"/><use transform="matrix(0.008072916666666667,0,0,0.008072916666666667,48.792708333333344,0)" xlink:href="#ay"/><use transform="matrix(0.008072916666666667,0,0,0.008072916666666667,58.07656250000001,0)" xlink:href="#aH"/><use transform="matrix(0.008072916666666667,0,0,0.008072916666666667,67.52187500000001,0)" xlink:href="#aJ"/><use transform="matrix(0.008072916666666667,0,0,0.008072916666666667,76.59583333333335,0)" xlink:href="#aN"/></g><g id="A"><use transform="matrix(0.008072916666666667,0,0,0.008072916666666667,0,0)" xlink:href="#ba"/><use transform="matrix(0.008072916666666667,0,0,0.008072916666666667,12.335416666666667,0)" xlink:href="#ax"/><use transform="matrix(0.008072916666666667,0,0,0.008072916666666667,21.97447916666667,0)" xlink:href="#aC"/><use transform="matrix(0.008072916666666667,0,0,0.008072916666666667,27.92421875,0)" xlink:href="#ax"/><use transform="matrix(0.008072916666666667,0,0,0.008072916666666667,37.56328125,0)" xlink:href="#aG"/><use transform="matrix(0.008072916666666667,0,0,0.008072916666666667,47.331510416666674,0)" xlink:href="#aH"/><use transform="matrix(0.008072916666666667,0,0,0.008072916666666667,56.776822916666674,0)" xlink:href="#aA"/><use transform="matrix(0.008072916666666667,0,0,0.008072916666666667,60.780989583333344,0)" xlink:href="#ay"/><use transform="matrix(0.008072916666666667,0,0,0.008072916666666667,70.06484375000001,0)" xlink:href="#aC"/></g><g id="B"><use transform="matrix(0.008072916666666667,0,0,0.008072916666666667,0,0)" xlink:href="#aT"/><use transform="matrix(0.008072916666666667,0,0,0.008072916666666667,11.407031250000001,0)" xlink:href="#aM"/><use transform="matrix(0.008072916666666667,0,0,0.008072916666666667,21.183333333333337,0)" xlink:href="#aV"/><use transform="matrix(0.008072916666666667,0,0,0.008072916666666667,31.30677083333334,0)" xlink:href="#aA"/><use transform="matrix(0.008072916666666667,0,0,0.008072916666666667,35.31093750000001,0)" xlink:href="#aO"/><use transform="matrix(0.008072916666666667,0,0,0.008072916666666667,40.55833333333334,0)" xlink:href="#aE"/><use transform="matrix(0.008072916666666667,0,0,0.008072916666666667,50.471875000000004,0)" xlink:href="#aC"/><use transform="matrix(0.008072916666666667,0,0,0.008072916666666667,56.954427083333336,0)" xlink:href="#aA"/><use transform="matrix(0.008072916666666667,0,0,0.008072916666666667,60.958593750000006,0)" xlink:href="#aE"/><use transform="matrix(0.008072916666666667,0,0,0.008072916666666667,70.87213541666668,0)" xlink:href="#aN"/></g><path fill="#fff" d="M783 20c-382 0-661-292-661-764 0-473 279-766 661-766 302 0 548 182 601 489h-190c-42-204-217-313-411-313-268 0-476 208-476 590 0 381 209 588 476 588 195 0 369-110 411-313h190c-52 303-296 489-601 489" id="bb"/><path fill="#fff" d="M763 24c-353 0-583-224-583-531v-983h190v968c0 214 149 370 393 370 243 0 391-156 391-370v-968h190v983c0 307-230 531-581 531" id="bc"/><path fill="#fff" d="M645 0H180v-1490h484c435 0 692 280 692 742 0 466-257 748-711 748zM370-168h263c363 0 539-218 539-580 0-358-176-574-521-574H370v1154" id="bd"/><g id="C"><use transform="matrix(0.008072916666666667,0,0,0.008072916666666667,0,0)" xlink:href="#bb"/><use transform="matrix(0.008072916666666667,0,0,0.008072916666666667,12.077083333333334,0)" xlink:href="#aw"/><use transform="matrix(0.008072916666666667,0,0,0.008072916666666667,22.7171875,0)" xlink:href="#bc"/><use transform="matrix(0.008072916666666667,0,0,0.008072916666666667,35.0203125,0)" xlink:href="#bd"/></g><g id="D"><use transform="matrix(0.008072916666666667,0,0,0.008072916666666667,0,0)" xlink:href="#aV"/><use transform="matrix(0.008072916666666667,0,0,0.008072916666666667,10.123437500000001,0)" xlink:href="#ax"/></g><g id="E"><use transform="matrix(0.008072916666666667,0,0,0.008072916666666667,0,0)" xlink:href="#aT"/><use transform="matrix(0.008072916666666667,0,0,0.008072916666666667,11.407031250000001,0)" xlink:href="#aC"/><use transform="matrix(0.008072916666666667,0,0,0.008072916666666667,17.889583333333334,0)" xlink:href="#aR"/><use transform="matrix(0.008072916666666667,0,0,0.008072916666666667,32.372395833333336,0)" xlink:href="#aU"/><use transform="matrix(0.008072916666666667,0,0,0.008072916666666667,41.65625,0)" xlink:href="#aC"/><use transform="matrix(0.008072916666666667,0,0,0.008072916666666667,48.13880208333333,0)" xlink:href="#aA"/><use transform="matrix(0.008072916666666667,0,0,0.008072916666666667,52.14296875,0)" xlink:href="#aE"/><use transform="matrix(0.008072916666666667,0,0,0.008072916666666667,62.05651041666667,0)" xlink:href="#aN"/></g><g id="F"><use transform="matrix(0.008072916666666667,0,0,0.008072916666666667,0,0)" xlink:href="#aW"/><use transform="matrix(0.008072916666666667,0,0,0.008072916666666667,11.407031250000001,0)" xlink:href="#aA"/><use transform="matrix(0.008072916666666667,0,0,0.008072916666666667,15.41119791666667,0)" xlink:href="#aN"/><use transform="matrix(0.008072916666666667,0,0,0.008072916666666667,24.138020833333336,0)" xlink:href="#aA"/><use transform="matrix(0.008072916666666667,0,0,0.008072916666666667,28.142187500000002,0)" xlink:href="#aO"/><use transform="matrix(0.008072916666666667,0,0,0.008072916666666667,33.631770833333334,0)" xlink:href="#ay"/></g><g id="G"><use transform="matrix(0.008072916666666667,0,0,0.008072916666666667,0,0)" xlink:href="#aT"/><use transform="matrix(0.008072916666666667,0,0,0.008072916666666667,11.407031250000001,0)" xlink:href="#aH"/><use transform="matrix(0.008072916666666667,0,0,0.008072916666666667,20.852343750000003,0)" xlink:href="#ax"/><use transform="matrix(0.008072916666666667,0,0,0.008072916666666667,30.491406250000004,0)" xlink:href="#aN"/><use transform="matrix(0.008072916666666667,0,0,0.008072916666666667,39.21822916666667,0)" xlink:href="#aN"/><use transform="matrix(0.008072916666666667,0,0,0.008072916666666667,47.945052083333344,0)" xlink:href="#ay"/><use transform="matrix(0.008072916666666667,0,0,0.008072916666666667,57.22890625000001,0)" xlink:href="#aC"/></g><path fill="#fff" d="M180 0v-1490h190v644h782v-644h190V0h-190v-678H370V0H180" id="be"/><g id="H"><use transform="matrix(0.008072916666666667,0,0,0.008072916666666667,0,0)" xlink:href="#be"/><use transform="matrix(0.008072916666666667,0,0,0.008072916666666667,12.286979166666669,0)" xlink:href="#aA"/><use transform="matrix(0.008072916666666667,0,0,0.008072916666666667,16.291145833333335,0)" xlink:href="#aN"/><use transform="matrix(0.008072916666666667,0,0,0.008072916666666667,25.01796875,0)" xlink:href="#aO"/><use transform="matrix(0.008072916666666667,0,0,0.008072916666666667,30.265364583333337,0)" xlink:href="#aZ"/><use transform="matrix(0.008072916666666667,0,0,0.008072916666666667,40.178906250000004,0)" xlink:href="#aC"/><use transform="matrix(0.008072916666666667,0,0,0.008072916666666667,46.661458333333336,0)" xlink:href="#aA"/><use transform="matrix(0.008072916666666667,0,0,0.008072916666666667,50.665625000000006,0)" xlink:href="#aH"/><use transform="matrix(0.008072916666666667,0,0,0.008072916666666667,60.110937500000006,0)" xlink:href="#aE"/></g><g id="I"><use transform="matrix(0.008072916666666667,0,0,0.008072916666666667,0,0)" xlink:href="#bc"/><use transform="matrix(0.008072916666666667,0,0,0.008072916666666667,12.303125000000001,0)" xlink:href="#aN"/><use transform="matrix(0.008072916666666667,0,0,0.008072916666666667,21.02994791666667,0)" xlink:href="#aM"/><use transform="matrix(0.008072916666666667,0,0,0.008072916666666667,30.806250000000006,0)" xlink:href="#aU"/><use transform="matrix(0.008072916666666667,0,0,0.008072916666666667,40.09010416666668,0)" xlink:href="#aC"/><use transform="matrix(0.008072916666666667,0,0,0.008072916666666667,46.57265625000001,0)" xlink:href="#aA"/><use transform="matrix(0.008072916666666667,0,0,0.008072916666666667,50.57682291666668,0)" xlink:href="#aE"/><use transform="matrix(0.008072916666666667,0,0,0.008072916666666667,60.490364583333346,0)" xlink:href="#aN"/></g><g id="J"><use transform="matrix(0.008072916666666667,0,0,0.008072916666666667,0,0)" xlink:href="#aD"/><use transform="matrix(0.008072916666666667,0,0,0.008072916666666667,9.348437500000001,0)" xlink:href="#aE"/><use transform="matrix(0.008072916666666667,0,0,0.008072916666666667,19.26197916666667,0)" xlink:href="#aH"/><use transform="matrix(0.008072916666666667,0,0,0.008072916666666667,28.868750000000006,0)" xlink:href="#ay"/><use transform="matrix(0.008072916666666667,0,0,0.008072916666666667,38.15260416666668,0)" xlink:href="#az"/><use transform="matrix(0.008072916666666667,0,0,0.008072916666666667,42.15677083333335,0)" xlink:href="#aA"/><use transform="matrix(0.008072916666666667,0,0,0.008072916666666667,46.16093750000002,0)" xlink:href="#aV"/><use transform="matrix(0.008072916666666667,0,0,0.008072916666666667,56.28437500000002,0)" xlink:href="#ay"/><use transform="matrix(0.008072916666666667,0,0,0.008072916666666667,65.56822916666668,0)" xlink:href="#aV"/><use transform="matrix(0.008072916666666667,0,0,0.008072916666666667,75.69166666666669,0)" xlink:href="#ax"/><use transform="matrix(0.008072916666666667,0,0,0.008072916666666667,85.33072916666669,0)" xlink:href="#aN"/></g><g id="K"><use transform="matrix(0.008072916666666667,0,0,0.008072916666666667,0,0)" xlink:href="#ag"/><use transform="matrix(0.008072916666666667,0,0,0.008072916666666667,11.084114583333335,0)" xlink:href="#am"/><use transform="matrix(0.008072916666666667,0,0,0.008072916666666667,16.34765625,0)" xlink:href="#ad"/><use transform="matrix(0.008072916666666667,0,0,0.008072916666666667,25.865625,0)" xlink:href="#ae"/><use transform="matrix(0.008072916666666667,0,0,0.008072916666666667,35.641927083333336,0)" xlink:href="#ac"/><use transform="matrix(0.008072916666666667,0,0,0.008072916666666667,45.7734375,0)" xlink:href="#ad"/><use transform="matrix(0.008072916666666667,0,0,0.008072916666666667,55.29140625,0)" xlink:href="#ae"/><use transform="matrix(0.008072916666666667,0,0,0.008072916666666667,65.06770833333334,0)" xlink:href="#am"/><use transform="matrix(0.008072916666666667,0,0,0.008072916666666667,70.33125000000001,0)" xlink:href="#ad"/></g><g id="L"><use transform="matrix(0.008072916666666667,0,0,0.008072916666666667,0,0)" xlink:href="#aT"/><use transform="matrix(0.008072916666666667,0,0,0.008072916666666667,11.407031250000001,0)" xlink:href="#az"/><use transform="matrix(0.008072916666666667,0,0,0.008072916666666667,15.41119791666667,0)" xlink:href="#aE"/><use transform="matrix(0.008072916666666667,0,0,0.008072916666666667,25.324739583333336,0)" xlink:href="#aH"/><use transform="matrix(0.008072916666666667,0,0,0.008072916666666667,34.93151041666667,0)" xlink:href="#ay"/><use transform="matrix(0.008072916666666667,0,0,0.008072916666666667,44.21536458333334,0)" xlink:href="#aC"/></g><g id="M"><use transform="matrix(0.008072916666666667,0,0,0.008072916666666667,0,0)" xlink:href="#aW"/><use transform="matrix(0.008072916666666667,0,0,0.008072916666666667,11.407031250000001,0)" xlink:href="#aA"/><use transform="matrix(0.008072916666666667,0,0,0.008072916666666667,15.41119791666667,0)" xlink:href="#aN"/><use transform="matrix(0.008072916666666667,0,0,0.008072916666666667,24.138020833333336,0)" xlink:href="#aA"/><use transform="matrix(0.008072916666666667,0,0,0.008072916666666667,28.142187500000002,0)" xlink:href="#aO"/><use transform="matrix(0.008072916666666667,0,0,0.008072916666666667,33.631770833333334,0)" xlink:href="#ay"/><use transform="matrix(0.008072916666666667,0,0,0.008072916666666667,42.915625000000006,0)" xlink:href="#aG"/><use transform="matrix(0.008072916666666667,0,0,0.008072916666666667,52.68385416666668,0)" xlink:href="#aO"/><use transform="matrix(0.008072916666666667,0,0,0.008072916666666667,57.931250000000006,0)" xlink:href="#ax"/></g><path fill="#fff" d="M158 418v-1536h174v179h20c37-59 106-193 324-193 279 0 474 222 474 576 0 356-194 580-473 580-213 0-288-135-325-197h-14v591H158zm492-555c209 0 317-186 317-421 0-232-105-413-317-413-206 0-314 166-314 413 0 249 111 421 314 421" id="bf"/><g id="N"><use transform="matrix(0.008072916666666667,0,0,0.008072916666666667,0,0)" xlink:href="#bf"/><use transform="matrix(0.008072916666666667,0,0,0.008072916666666667,10.284895833333335,0)" xlink:href="#ay"/><use transform="matrix(0.008072916666666667,0,0,0.008072916666666667,19.56875,0)" xlink:href="#aC"/><use transform="matrix(0.008072916666666667,0,0,0.008072916666666667,25.79296875,0)" xlink:href="#ay"/></g><g id="O"><use transform="matrix(0.008072916666666667,0,0,0.008072916666666667,0,0)" xlink:href="#aT"/><use transform="matrix(0.008072916666666667,0,0,0.008072916666666667,11.407031250000001,0)" xlink:href="#aC"/><use transform="matrix(0.008072916666666667,0,0,0.008072916666666667,17.889583333333334,0)" xlink:href="#aR"/><use transform="matrix(0.008072916666666667,0,0,0.008072916666666667,32.372395833333336,0)" xlink:href="#ay"/><use transform="matrix(0.008072916666666667,0,0,0.008072916666666667,41.65625,0)" xlink:href="#aC"/><use transform="matrix(0.008072916666666667,0,0,0.008072916666666667,48.13880208333333,0)" xlink:href="#aA"/><use transform="matrix(0.008072916666666667,0,0,0.008072916666666667,52.14296875,0)" xlink:href="#aE"/></g><g id="P"><use transform="matrix(0.008072916666666667,0,0,0.008072916666666667,0,0)" xlink:href="#aT"/><use transform="matrix(0.008072916666666667,0,0,0.008072916666666667,11.407031250000001,0)" xlink:href="#aV"/><use transform="matrix(0.008072916666666667,0,0,0.008072916666666667,21.530468750000004,0)" xlink:href="#aA"/><use transform="matrix(0.008072916666666667,0,0,0.008072916666666667,25.53463541666667,0)" xlink:href="#aH"/><use transform="matrix(0.008072916666666667,0,0,0.008072916666666667,34.979947916666674,0)" xlink:href="#aA"/><use transform="matrix(0.008072916666666667,0,0,0.008072916666666667,38.984114583333344,0)" xlink:href="#aE"/><use transform="matrix(0.008072916666666667,0,0,0.008072916666666667,48.89765625000001,0)" xlink:href="#aG"/><use transform="matrix(0.008072916666666667,0,0,0.008072916666666667,58.66588541666668,0)" xlink:href="#ay"/><use transform="matrix(0.008072916666666667,0,0,0.008072916666666667,67.94973958333335,0)" xlink:href="#aC"/></g><g id="Q"><use transform="matrix(0.008072916666666667,0,0,0.008072916666666667,0,0)" xlink:href="#aW"/><use transform="matrix(0.008072916666666667,0,0,0.008072916666666667,11.407031250000001,0)" xlink:href="#aA"/><use transform="matrix(0.008072916666666667,0,0,0.008072916666666667,15.41119791666667,0)" xlink:href="#aN"/><use transform="matrix(0.008072916666666667,0,0,0.008072916666666667,24.138020833333336,0)" xlink:href="#aA"/><use transform="matrix(0.008072916666666667,0,0,0.008072916666666667,28.142187500000002,0)" xlink:href="#aO"/><use transform="matrix(0.008072916666666667,0,0,0.008072916666666667,33.631770833333334,0)" xlink:href="#ay"/><use transform="matrix(0.008072916666666667,0,0,0.008072916666666667,42.915625000000006,0)" xlink:href="#aG"/><use transform="matrix(0.008072916666666667,0,0,0.008072916666666667,52.68385416666668,0)" xlink:href="#aO"/><use transform="matrix(0.008072916666666667,0,0,0.008072916666666667,57.931250000000006,0)" xlink:href="#ax"/></g><g id="R"><use transform="matrix(0.008072916666666667,0,0,0.008072916666666667,0,0)" xlink:href="#bd"/><use transform="matrix(0.008072916666666667,0,0,0.008072916666666667,11.931770833333335,0)" xlink:href="#aE"/><use transform="matrix(0.008072916666666667,0,0,0.008072916666666667,21.845312500000002,0)" xlink:href="#aH"/><use transform="matrix(0.008072916666666667,0,0,0.008072916666666667,31.290625000000006,0)" xlink:href="#aM"/><use transform="matrix(0.008072916666666667,0,0,0.008072916666666667,41.06692708333334,0)" xlink:href="#aR"/><use transform="matrix(0.008072916666666667,0,0,0.008072916666666667,55.54973958333334,0)" xlink:href="#ax"/><use transform="matrix(0.008072916666666667,0,0,0.008072916666666667,65.18880208333334,0)" xlink:href="#aG"/><use transform="matrix(0.008072916666666667,0,0,0.008072916666666667,74.95703125000001,0)" xlink:href="#aO"/><use transform="matrix(0.008072916666666667,0,0,0.008072916666666667,80.20442708333336,0)" xlink:href="#aE"/><use transform="matrix(0.008072916666666667,0,0,0.008072916666666667,90.11796875000002,0)" xlink:href="#aN"/></g></defs></g></svg>